<svg xmlns="http://www.w3.org/2000/svg" xmlns:xlink="http://www.w3.org/1999/xlink" width="197" height="37"><g fill="#FFF"><path d="M41.156 4.506c.794 0 1.597.074 2.407.223s1.456.364 1.936.645c.149.066.24.141.273.223.05.066.083.19.099.372l.273 2.78c0 .05-.041.083-.124.099-.083 0-.132-.025-.149-.074-.364-1.274-1.042-2.209-2.035-2.805-.976-.612-2.192-.918-3.648-.918-1.257 0-2.358.281-3.301.844-.943.546-1.671 1.324-2.184 2.333s-.769 2.176-.769 3.499c0 1.539.314 2.962.943 4.269.645 1.307 1.506 2.341 2.581 3.102 1.092.761 2.267 1.142 3.524 1.142 1.191 0 2.225-.323 3.102-.968.877-.662 1.547-1.671 2.01-3.028 0-.05.033-.074.099-.074.05 0 .091.008.124.025.05.017.074.041.074.074l-.347 2.805c-.033.199-.074.331-.124.397-.033.05-.124.108-.273.174a12 12 0 0 1-4.716.943c-1.986 0-3.648-.397-4.989-1.191-1.324-.811-2.3-1.837-2.929-3.078a8.56 8.56 0 0 1-.943-3.921c0-1.522.422-2.887 1.266-4.095s1.961-2.143 3.351-2.805 2.879-.993 4.467-.993h0zm18.08 15.487c.05 0 .074.05.074.149s-.025.149-.074.149c-.381 0-.687-.008-.918-.025l-1.34-.025-1.34.025-.918.025c-.05 0-.074-.05-.074-.149s.025-.149.074-.149c.447 0 .778-.041.993-.124a.83.83 0 0 0 .447-.496c.083-.248.124-.612.124-1.092v-3.946c0-.976-.19-1.696-.571-2.159-.364-.48-.935-.72-1.713-.72-.513 0-1.034.141-1.564.422-.529.265-1.009.637-1.44 1.117v5.286c0 .48.041.844.124 1.092a.83.83 0 0 0 .447.496c.215.083.546.124.993.124.05 0 .074.05.074.149s-.025.149-.074.149c-.381 0-.687-.008-.918-.025l-1.34-.025-1.34.025-.918.025c-.05 0-.074-.05-.074-.149s.025-.149.074-.149c.447 0 .778-.041.993-.124a.83.83 0 0 0 .447-.496c.083-.248.124-.612.124-1.092V5.449c0-.596-.058-1.026-.174-1.291a.62.62 0 0 0-.62-.397c-.248 0-.629.116-1.142.347h-.05c-.05 0-.091-.041-.124-.124s-.017-.132.05-.149L50.7 2.296h.074c.066 0 .116.025.149.074.05.033.074.074.074.124v10.077c.629-.728 1.249-1.257 1.861-1.588a4 4 0 0 1 1.961-.521c.91 0 1.613.256 2.11.769s.745 1.257.745 2.234v4.815c0 .48.041.844.124 1.092a.83.83 0 0 0 .447.496c.215.083.546.124.993.124h0z"/><use xlink:href="#B"/><path d="M70.008 20.291c-.033 0-.05-.05-.05-.149s.017-.149.05-.149c.447 0 .778-.041.993-.124a.82.82 0 0 0 .472-.496c.083-.248.124-.612.124-1.092V13.64c0-.596-.066-1.026-.199-1.291a.62.62 0 0 0-.62-.397c-.298 0-.67.116-1.117.347h-.025c-.066 0-.116-.041-.149-.124s-.025-.141.025-.174l3.226-1.489.099-.025c.033 0 .074.025.124.074.05.033.074.074.074.124l-.025.993-.025 1.936v4.666c0 .496.041.86.124 1.092a.83.83 0 0 0 .447.496c.215.083.546.124.993.124.05 0 .074.05.074.149s-.025.149-.074.149c-.381 0-.687-.008-.918-.025l-1.34-.025-1.34.025-.943.025zm2.085-12.707c-.347 0-.62-.091-.819-.273-.182-.182-.273-.438-.273-.769s.091-.587.273-.769c.199-.182.472-.273.819-.273.331 0 .587.091.769.273s.273.438.273.769-.091.587-.273.769-.438.273-.769.273zm5.795 4.641c0 .579.19 1.042.571 1.39.381.331.943.687 1.688 1.067l1.34.769a2.93 2.93 0 0 1 .844.844c.232.347.347.769.347 1.266 0 .844-.314 1.555-.943 2.134s-1.481.869-2.556.869c-.877 0-1.671-.248-2.383-.745-.099-.066-.149-.165-.149-.298l-.05-1.936c0-.05.041-.074.124-.074.099-.017.157 0 .174.05.314.827.72 1.456 1.216 1.886.513.43 1.1.645 1.762.645.513 0 .91-.116 1.191-.347.298-.248.447-.612.447-1.092 0-.463-.108-.852-.323-1.166-.199-.331-.447-.587-.745-.769-.298-.199-.703-.43-1.216-.695l-1.315-.72a3.07 3.07 0 0 1-.819-.844c-.215-.347-.323-.778-.323-1.291 0-.893.331-1.572.993-2.035.678-.48 1.473-.72 2.383-.72a4.33 4.33 0 0 1 1.812.372c.099.033.157.074.174.124.033.033.05.083.05.149l-.025.769-.025 1.042c0 .033-.05.05-.149.05s-.149-.017-.149-.05c0-.347-.132-.67-.397-.968-.265-.314-.596-.563-.993-.745s-.794-.273-1.191-.273c-.43 0-.769.116-1.018.347-.232.215-.347.546-.347.993h0zm13.563 6.776c.066 0 .116.041.149.124.033.066.025.116-.025.149-.612.48-1.166.819-1.663 1.018a3.92 3.92 0 0 1-1.514.298c-.695 0-1.266-.157-1.713-.472s-.67-.836-.67-1.564v-5.832c0-.43-.033-.736-.099-.918a.46.46 0 0 0-.323-.347c-.165-.066-.447-.099-.844-.099-.066 0-.099-.05-.099-.149 0-.116.033-.174.099-.174.662-.017 1.2-.19 1.613-.521.414-.347.654-.802.72-1.365 0-.05.066-.074.199-.074.116 0 .174.025.174.074v1.837c.827-.017 1.977-.099 3.45-.248.033 0 .066.066.099.199a1 1 0 0 1 .075.397 1.04 1.04 0 0 1-.099.422c-.05.132-.108.19-.174.174-.91-.232-2.027-.364-3.351-.397v6.18c0 .678.165 1.183.496 1.514.347.331.836.496 1.464.496a3.03 3.03 0 0 0 1.986-.695l.05-.025zm15.438 1.588c-1.539 0-2.912-.356-4.12-1.067-1.191-.728-2.118-1.704-2.78-2.929-.645-1.241-.968-2.589-.968-4.045 0-1.704.43-3.16 1.291-4.368a8.07 8.07 0 0 1 3.301-2.755c1.357-.612 2.738-.918 4.145-.918 1.572 0 2.953.372 4.145 1.117a7.31 7.31 0 0 1 2.73 2.904 8.05 8.05 0 0 1 .968 3.847 7.61 7.61 0 0 1-1.191 4.145c-.794 1.258-1.861 2.25-3.202 2.978-1.324.728-2.763 1.092-4.319 1.092zm.869-.521c1.125 0 2.134-.273 3.028-.819.91-.546 1.622-1.349 2.134-2.407.529-1.059.794-2.316.794-3.772 0-1.555-.29-2.937-.869-4.145s-1.398-2.151-2.457-2.829c-1.042-.678-2.267-1.018-3.673-1.018-1.82 0-3.243.587-4.269 1.762s-1.539 2.788-1.539 4.84c0 1.555.29 2.978.869 4.269.579 1.274 1.39 2.283 2.432 3.028 1.042.728 2.225 1.092 3.549 1.092zm21.083-1.191c.066 0 .108.041.124.124.033.066.017.116-.05.149l-2.904 1.365-.099.025c-.165 0-.323-.19-.472-.571s-.223-.877-.223-1.489v-.099c-.645.728-1.291 1.266-1.936 1.613-.645.331-1.315.496-2.01.496-.827 0-1.473-.256-1.936-.769-.463-.529-.695-1.291-.695-2.283V13.64c0-.645-.058-1.109-.174-1.39-.116-.298-.306-.447-.571-.447-.232 0-.513.083-.844.248h-.025c-.066 0-.116-.041-.149-.124-.033-.099-.017-.157.05-.174l2.755-1.241.099-.025c.05 0 .099.025.149.074.066.033.099.074.099.124v5.932c0 1.919.695 2.879 2.085 2.879.529 0 1.067-.132 1.613-.397a5.42 5.42 0 0 0 1.489-1.142V13.64c0-.662-.058-1.133-.174-1.415-.099-.281-.29-.422-.571-.422-.232 0-.513.083-.844.248h-.025c-.066 0-.116-.041-.149-.124-.017-.099.008-.157.074-.174l2.755-1.241.074-.025c.05 0 .099.025.149.074.066.033.099.074.099.124v6.949c0 .563.066.968.199 1.216s.356.372.67.372c.281 0 .72-.116 1.315-.347h.05z"/><use xlink:href="#B" x="69.208"/><path d="M148.411 18.182c0 .529.066.918.199 1.166.149.232.422.397.819.496.414.099 1.059.149 1.936.149.05 0 .075.05.075.149s-.025.149-.075.149c-.678 0-1.208-.008-1.588-.025l-2.159-.025-1.663.025-1.266.025c-.033 0-.05-.05-.05-.149s.017-.149.05-.149c.629 0 1.084-.041 1.365-.124.298-.083.496-.24.596-.472.099-.248.149-.62.149-1.117V6.79c0-.496-.05-.86-.149-1.092s-.298-.389-.596-.472c-.281-.099-.736-.149-1.365-.149-.033 0-.05-.05-.05-.149s.017-.149.05-.149l1.241.025 1.663.05c.414 0 .877-.025 1.39-.074l.943-.025 1.117-.05c1.522 0 2.738.339 3.648 1.018.927.678 1.39 1.713 1.39 3.102 0 1.092-.273 2.01-.819 2.755a4.82 4.82 0 0 1-2.06 1.663 6.52 6.52 0 0 1-2.606.546c-.48 0-.877-.041-1.191-.124-.05 0-.075-.041-.075-.124a.47.47 0 0 1 .025-.149c.033-.05.066-.066.099-.05a3.69 3.69 0 0 0 .893.099c1.092 0 2.01-.356 2.755-1.067.761-.711 1.142-1.737 1.142-3.078 0-1.307-.356-2.333-1.067-3.078-.711-.761-1.622-1.142-2.73-1.142-.596 0-1.026.033-1.291.099a.82.82 0 0 0-.571.472c-.116.232-.174.629-.174 1.191V18.18zm17.112.719c.05 0 .091.033.124.099.05.05.058.099.025.149-1.125.96-2.333 1.439-3.624 1.439-.976 0-1.82-.223-2.532-.67a4.39 4.39 0 0 1-1.613-1.737 5.41 5.41 0 0 1-.521-2.358c0-.993.232-1.895.695-2.705a5.23 5.23 0 0 1 1.936-1.911c.811-.48 1.713-.72 2.705-.72.893 0 1.588.223 2.085.67.496.43.745 1.026.745 1.787 0 .199-.025.347-.075.447-.033.083-.108.124-.223.124l-6.105.05c-.083.447-.124.877-.124 1.291 0 1.44.347 2.614 1.042 3.524.695.893 1.655 1.34 2.879 1.34a4.28 4.28 0 0 0 2.556-.819h.025zm-3.648-7.917c-.678 0-1.249.199-1.713.596-.447.381-.761.927-.943 1.638l4.616-.099c0-.678-.182-1.2-.546-1.564-.347-.381-.819-.571-1.415-.571h0zm14.854 7.967c.066 0 .108.041.124.124.017.066-.008.116-.075.149l-2.556 1.216a.44.44 0 0 1-.199.05c-.215 0-.405-.141-.571-.422s-.273-.67-.323-1.167l-1.539.819c-.513.265-.935.455-1.266.571a2.92 2.92 0 0 1-.968.174c-.513 0-.91-.132-1.191-.397a1.46 1.46 0 0 1-.397-1.042c0-.447.165-.802.496-1.067.347-.281.96-.571 1.837-.869l3.003-1.067v-2.06c0-1.092-.141-1.853-.422-2.283-.281-.447-.67-.67-1.166-.67-.563 0-1.001.199-1.315.596s-.505.877-.571 1.44c-.066.629-.372.943-.918.943-.265 0-.472-.066-.62-.199s-.223-.314-.223-.546c0-.381.248-.786.745-1.216s1.092-.794 1.787-1.092c.711-.298 1.349-.447 1.911-.447.662 0 1.191.232 1.588.695.397.447.596 1.125.596 2.035v4.393c0 .579.074 1.001.223 1.266s.397.397.745.397c.314 0 .72-.108 1.216-.323h.05zm-3.624-.397V16.32l-2.556.968c-.381.149-.654.314-.819.496-.149.182-.223.414-.223.695 0 .347.099.62.298.819.199.182.455.273.769.273s.654-.083 1.018-.248l1.514-.769zm9.394 2.035c-1.075 0-1.977-.232-2.705-.695-.728-.48-1.266-1.092-1.613-1.837a5.51 5.51 0 0 1-.521-2.358c0-1.059.265-1.977.794-2.755a5.22 5.22 0 0 1 2.035-1.812c.844-.43 1.704-.645 2.581-.645.728 0 1.39.149 1.986.447.612.281.918.637.918 1.067 0 .215-.083.405-.248.571-.149.149-.356.223-.62.223-.447 0-.811-.273-1.092-.819-.215-.331-.447-.579-.695-.745s-.604-.248-1.067-.248a2.55 2.55 0 0 0-2.184 1.092c-.513.711-.769 1.671-.769 2.879 0 1.39.347 2.532 1.042 3.425s1.737 1.34 3.127 1.34c1.009 0 1.853-.273 2.532-.819h.025c.05 0 .091.025.124.075.05.05.058.091.025.124-.579.513-1.166.893-1.762 1.142-.579.232-1.216.347-1.911.347h0zm13.291-1.688c.05 0 .091.033.124.099.05.05.058.099.025.149-1.125.96-2.333 1.439-3.624 1.439-.976 0-1.82-.223-2.532-.67a4.39 4.39 0 0 1-1.613-1.737 5.41 5.41 0 0 1-.521-2.358c0-.993.232-1.895.695-2.705a5.23 5.23 0 0 1 1.936-1.911c.811-.48 1.712-.72 2.705-.72.893 0 1.588.223 2.085.67.496.43.745 1.026.745 1.787 0 .199-.025.347-.075.447-.033.083-.108.124-.223.124l-6.105.05a7.09 7.09 0 0 0-.124 1.291c0 1.44.347 2.614 1.042 3.524.695.893 1.655 1.34 2.879 1.34a4.28 4.28 0 0 0 2.556-.819h.025zm-3.648-7.917c-.678 0-1.249.199-1.712.596-.447.381-.761.927-.943 1.638l4.616-.099c0-.678-.182-1.2-.546-1.564-.347-.381-.819-.571-1.415-.571h0z"/></g><g fill="#FFF"><path d="M38.436 32.337h-3.434l-.74 1.646h-.678l2.817-6.163h.643l2.817 6.163h-.687l-.74-1.646zm-.238-.528l-1.479-3.311-1.479 3.311h2.958zm9.037-3.989v6.163h-.537l-3.962-5.001v5.001h-.652V27.82h.537l3.971 5.001V27.82zm7.549 3.082h.625v2.351a3.01 3.01 0 0 1-1.021.581c-.393.135-.807.203-1.241.203-.616 0-1.171-.135-1.664-.405a3 3 0 0 1-1.162-1.118 3.13 3.13 0 0 1-.423-1.611c0-.593.141-1.127.423-1.602a2.98 2.98 0 0 1 1.162-1.127c.493-.27 1.051-.405 1.673-.405.47 0 .901.076 1.294.229a2.53 2.53 0 0 1 .995.66l-.405.414c-.487-.481-1.106-.722-1.858-.722-.499 0-.951.112-1.356.335a2.39 2.39 0 0 0-.942.916 2.51 2.51 0 0 0-.343 1.303 2.51 2.51 0 0 0 .343 1.303 2.48 2.48 0 0 0 .942.916c.399.223.848.335 1.347.335.634 0 1.171-.158 1.611-.475v-2.078zm3.666-3.082h.652v5.6h3.451v.563H58.45zm6.386 0h.652v6.163h-.652z"/><use xlink:href="#C"/><path d="M79.933 32.337H76.5l-.74 1.646h-.678L77.9 27.82h.643l2.817 6.163h-.687l-.74-1.646zm-.238-.528l-1.479-3.311-1.479 3.311h2.958zm9.037-3.989v6.163h-.537l-3.962-5.001v5.001h-.652V27.82h.537l3.971 5.001V27.82z"/><use xlink:href="#C" x="26.752"/><path d="M108.13 27.82v6.163h-.643v-2.844h-3.856v2.844h-.652V27.82h.652v2.747h3.856V27.82zm5.691 6.216c-.798 0-1.42-.229-1.867-.687s-.669-1.124-.669-1.999v-3.53h.652v3.504c0 .716.161 1.25.484 1.602s.789.528 1.4.528 1.086-.176 1.409-.528.484-.886.484-1.602V27.82h.634v3.531c0 .875-.223 1.541-.669 1.999-.44.458-1.059.687-1.858.687zm9.899-.053l-1.409-1.981a4.37 4.37 0 0 1-.493.026h-1.655v1.955h-.652V27.82h2.307c.787 0 1.403.188 1.849.563s.669.892.669 1.55c0 .481-.123.889-.37 1.224-.241.329-.587.566-1.039.713l1.506 2.113h-.713zm-1.919-2.509c.61 0 1.077-.135 1.4-.405s.484-.649.484-1.136c0-.499-.161-.88-.484-1.145s-.789-.405-1.4-.405h-1.638v3.09h1.638z"/><use xlink:href="#C" x="58.382"/><path d="M139.76 27.82v6.163h-.643v-2.844h-3.856v2.844h-.652V27.82h.652v2.747h3.856V27.82z"/></g><path d="M144.23 30.885h52.736" fill="#FFF"/><path fill="#FFF" d="M144.229 30.603v.565h52.738v-.565z"/><path d="M.335 13.562l.025.317c.085 1.434.39 2.79.997 4.039.729 1.443 1.749 2.592 3.061 3.45 1.158.73 2.454 1.142 3.888 1.237v8.911c0 .585-.079 1.024-.238 1.317-.136.273-.419.458-.849.556-.407.097-3.569.146-4.452.146-.045 0-.068.059-.068.176s.023.338.068.338l4.214-.029 2.239-.03 2.953.03 3.521.029c.068 0 .101-.221.101-.338s-.034-.176-.101-.176c-1.267 0-3.544-.057-4.133-.174-.566-.117-.951-.313-1.154-.585-.204-.292-.306-.751-.306-1.375v-8.842a9.15 9.15 0 0 0 3.606-1.217c1.476-.858 2.651-2.028 3.525-3.51.521-.884.848-1.833 1.041-2.826l.192-1.441H.335zm9.576-9.239c-1.549 0-3.07.337-4.564 1.011-1.476.674-2.688 1.685-3.635 3.033C.906 9.5.516 10.873.397 12.402h1.66c-.001-.053-.016-.101-.016-.155 0-2.259.592-4.044 1.776-5.356S6.65 4.924 8.763 4.924c1.603 0 3.006.373 4.209 1.12 1.221.747 2.158 1.794 2.814 3.142.487.96.736 2.056.871 3.216h1.817c-.082-1.275-.379-2.5-.994-3.652-.692-1.33-1.695-2.396-3.006-3.197-1.312-.82-2.833-1.23-4.564-1.23h0z" fill="#FFF"/><path d="M13.851 11.392c.036-.001.064.055.082.164.036.091.055.2.055.328a1.12 1.12 0 0 1-.055.355c-.018.109-.046.164-.082.164h-3.99-5.028c-.036 0-.073-.055-.109-.164-.018-.128-.027-.255-.027-.383a1.53 1.53 0 0 1 .027-.301c.018-.109.046-.164.082-.164l4.105.11-.088-4.1c-.001-.036.055-.064.164-.082.109-.036.228-.055.355-.055a1.12 1.12 0 0 1 .355.055c.109.018.164.046.164.082l-.154 4.1 4.144-.11z" fill="#FFF"/><path d="M24.65.845v35.726" fill="#FFF"/><path fill="#FFF" d="M24.366.845V36.57h.569V.845z"/><path d="M110.374 12.25c.025 0 .043.037.056.112.025.062.037.136.037.223s-.013.167-.037.242c-.013.074-.031.112-.056.112l-2.769-.053.053 2.769c0 .025-.043.05-.13.074a1.95 1.95 0 0 1-.279.019c-.198 0-.298-.019-.298-.056l.053-2.807-2.769.053c-.025 0-.05-.037-.074-.112a1.81 1.81 0 0 1-.019-.26 1.03 1.03 0 0 1 .019-.205c.013-.074.031-.112.056-.112l2.788.053-.053-2.769c0-.025.037-.043.112-.056.074-.025.155-.037.242-.037s.168.013.242.037c.074.013.112.031.112.056l-.053 2.769 2.77-.053z" fill="#FFF"/><defs ><path id="B" d="M66.545 10.488c.364 0 .711.099 1.042.298s.496.438.496.72c0 .215-.074.397-.223.546-.132.149-.331.223-.596.223a1 1 0 0 1-.397-.074l-.372-.273c-.149-.132-.29-.232-.422-.298s-.29-.099-.472-.099c-.215 0-.447.091-.695.273-.232.165-.604.546-1.117 1.142v5.336c0 .496.058.86.174 1.092.132.232.364.397.695.496.331.083.844.124 1.539.124.066 0 .099.05.099.149s-.033.149-.099.149c-.529 0-.951-.008-1.266-.025l-1.837-.025-1.365.025-.893.025c-.05 0-.075-.05-.075-.149s.025-.149.075-.149c.447 0 .778-.041.993-.124.215-.099.356-.265.422-.496.083-.232.124-.596.124-1.092v-4.914c0-.563-.066-.968-.199-1.216s-.356-.372-.67-.372c-.265 0-.711.124-1.34.372h-.05c-.066 0-.116-.033-.149-.099-.017-.083.008-.141.075-.174l2.879-1.365c.033-.017.083-.025.149-.025.149 0 .306.19.472.571s.248.869.248 1.464v.025c.678-.794 1.216-1.332 1.613-1.613.397-.298.778-.447 1.142-.447h0z"/><path id="C" d="M71.372 34.036c-.61 0-1.162-.135-1.655-.405-.487-.27-.872-.643-1.153-1.118-.276-.481-.414-1.018-.414-1.611s.138-1.127.414-1.602a2.98 2.98 0 0 1 1.162-1.127c.493-.27 1.045-.405 1.655-.405a3.43 3.43 0 0 1 1.268.229c.387.153.716.376.986.669l-.414.414c-.481-.487-1.089-.731-1.823-.731-.487 0-.93.112-1.329.335s-.713.528-.942.916c-.223.387-.335.822-.335 1.303s.112.916.335 1.303c.229.387.543.693.942.916s.842.335 1.329.335c.74 0 1.347-.247 1.823-.74l.414.414c-.27.293-.602.519-.995.678a3.43 3.43 0 0 1-1.268.229z"/></defs></svg>